<svg xmlns="http://www.w3.org/2000/svg" width="512" height="512" viewBox="0 0 512 512" role="img" aria-label="EMBER flame logo">
  <defs>
    <linearGradient id="bg" x1="0" y1="0" x2="1" y2="1">
      <stop offset="0%" stop-color="#0a040a" />
      <stop offset="100%" stop-color="#14060b" />
    </linearGradient>
    <radialGradient id="outer" cx="50%" cy="15%" r="80%">
      <stop offset="0%" stop-color="#ff7b1f" />
      <stop offset="65%" stop-color="#ff4a17" />
      <stop offset="100%" stop-color="#ff2d12" />
    </radialGradient>
    <radialGradient id="inner" cx="50%" cy="26%" r="72%">
      <stop offset="0%" stop-color="#fff07d" />
      <stop offset="100%" stop-color="#ff9f1f" />
    </radialGradient>
  </defs>

  <rect x="0" y="0" width="512" height="512" rx="104" fill="url(#bg)" />
  <path d="M256 62c33 58 70 102 70 159 0 47-32 85-70 85s-70-38-70-85c0-57 37-101 70-159z" fill="url(#outer)" />
  <path d="M256 122c23 39 48 67 48 106 0 33-22 58-48 58s-48-25-48-58c0-39 25-67 48-106z" fill="url(#inner)" />
</svg>
